<svg id="Layer_1" data-name="Layer 1" xmlns="http://www.w3.org/2000/svg" viewBox="0 0 4505 2841"><defs><style>.cls-1{fill:#999;}.cls-1,.cls-11,.cls-13,.cls-14,.cls-15,.cls-16,.cls-17,.cls-18,.cls-19,.cls-2,.cls-20,.cls-21,.cls-22,.cls-23,.cls-24,.cls-25,.cls-3,.cls-4,.cls-5,.cls-6,.cls-8,.cls-9{stroke:#000;}.cls-1,.cls-10,.cls-11,.cls-12,.cls-15,.cls-16,.cls-18,.cls-19,.cls-2,.cls-25,.cls-3,.cls-4,.cls-5,.cls-6,.cls-8,.cls-9{stroke-linecap:round;}.cls-1,.cls-10,.cls-11,.cls-12,.cls-13,.cls-14,.cls-15,.cls-16,.cls-19,.cls-2,.cls-20,.cls-21,.cls-22,.cls-23,.cls-24,.cls-25,.cls-3,.cls-4,.cls-5,.cls-6,.cls-8,.cls-9{stroke-linejoin:round;}.cls-1,.cls-10,.cls-11,.cls-12,.cls-19,.cls-2,.cls-3,.cls-4,.cls-5,.cls-6,.cls-8,.cls-9{stroke-width:6px;}.cls-2{fill:#ccc;}.cls-3{fill:gray;}.cls-17,.cls-4{fill:#0062ff;}.cls-5{fill:#f2f2f2;}.cls-12,.cls-16,.cls-18,.cls-6{fill:none;}.cls-10,.cls-7{fill:#fff;}.cls-8{fill:#00e9a9;}.cls-9{fill:#ff71f5;}.cls-10,.cls-12{stroke:#fff;}.cls-11{fill:#ffd500;}.cls-13{fill:#e75a4e;}.cls-13,.cls-14,.cls-15,.cls-16,.cls-17,.cls-18,.cls-20,.cls-21,.cls-22,.cls-23,.cls-24,.cls-25{stroke-width:5px;}.cls-14,.cls-15{fill:#e9cfa6;}.cls-17,.cls-18{stroke-miterlimit:10;}.cls-19{fill:#ddb40a;}.cls-20{fill:#d28159;}.cls-21{fill:#8c7156;}.cls-22{fill:#d6835b;}.cls-23{fill:#ef9a6a;}.cls-24{fill:#948077;}.cls-25{fill:#7942ee;}</style></defs><rect class="cls-1" x="351" y="1197" width="1018" height="683"/><polygon class="cls-2" points="1369 1880 351 1880 471 1770 1262 1770 1369 1880"/><rect class="cls-3" x="472.5" y="1199" width="790" height="570.5"/><rect class="cls-4" x="539" y="1449" width="174" height="321"/><rect class="cls-5" x="564" y="1476" width="124" height="124"/><line class="cls-6" x1="584" y1="1576" x2="661.5" y2="1498.5"/><line class="cls-6" x1="631" y1="1576" x2="665.5" y2="1541.5"/><line class="cls-6" x1="587" y1="1530" x2="616.5" y2="1500.5"/><rect class="cls-6" x="565" y="1650" width="122" height="92"/><circle class="cls-6" cx="674.5" cy="1625.5" r="12.5"/><rect class="cls-4" x="782" y="1449" width="174" height="321"/><rect class="cls-5" x="807" y="1476" width="124" height="124"/><line class="cls-6" x1="827" y1="1576" x2="904.5" y2="1498.5"/><line class="cls-6" x1="874" y1="1576" x2="908.5" y2="1541.5"/><line class="cls-6" x1="830" y1="1530" x2="859.5" y2="1500.5"/><rect class="cls-6" x="808" y="1650" width="122" height="92"/><circle class="cls-6" cx="917.5" cy="1625.5" r="12.5"/><rect class="cls-4" x="1023" y="1449" width="174" height="321"/><rect class="cls-5" x="1048" y="1476" width="124" height="124"/><line class="cls-6" x1="1068" y1="1576" x2="1145.5" y2="1498.5"/><line class="cls-6" x1="1115" y1="1576" x2="1149.5" y2="1541.5"/><line class="cls-6" x1="1071" y1="1530" x2="1100.5" y2="1500.5"/><rect class="cls-6" x="1049" y="1650" width="122" height="92"/><circle class="cls-6" cx="1158.5" cy="1625.5" r="12.5"/><rect class="cls-1" x="351" y="688" width="1018" height="573"/><polygon class="cls-2" points="1369 1261 351 1261 471 1151 1262 1151 1369 1261"/><rect class="cls-3" x="472.5" y="578" width="790" height="572.5"/><rect class="cls-4" x="539" y="830" width="174" height="321"/><rect class="cls-5" x="564" y="857" width="124" height="124"/><line class="cls-6" x1="584" y1="957" x2="661.5" y2="879.5"/><line class="cls-6" x1="631" y1="957" x2="665.5" y2="922.5"/><line class="cls-6" x1="587" y1="911" x2="616.5" y2="881.5"/><rect class="cls-6" x="565" y="1031" width="122" height="92"/><circle class="cls-6" cx="674.5" cy="1006.5" r="12.5"/><rect class="cls-4" x="782" y="830" width="174" height="321"/><rect class="cls-5" x="807" y="857" width="124" height="124"/><line class="cls-6" x1="827" y1="957" x2="904.5" y2="879.5"/><line class="cls-6" x1="874" y1="957" x2="908.5" y2="922.5"/><line class="cls-6" x1="830" y1="911" x2="859.5" y2="881.5"/><rect class="cls-6" x="808" y="1031" width="122" height="92"/><circle class="cls-6" cx="917.5" cy="1006.5" r="12.5"/><rect class="cls-4" x="1023" y="830" width="174" height="321"/><rect class="cls-5" x="1048" y="857" width="124" height="124"/><line class="cls-6" x1="1068" y1="957" x2="1145.5" y2="879.5"/><line class="cls-6" x1="1115" y1="957" x2="1149.5" y2="922.5"/><line class="cls-6" x1="1071" y1="911" x2="1100.5" y2="881.5"/><rect class="cls-6" x="1049" y="1031" width="122" height="92"/><circle class="cls-6" cx="1158.5" cy="1006.5" r="12.5"/><path class="cls-7" d="M644.38,1344.83v13.9h-7v-35h25.35v6h-18.4v9.11h13.5v6Z"/><path class="cls-7" d="M673.93,1358.73h-6.5v-17.4h-3.2v-5.5h9.7Zm-3.55-35a4.19,4.19,0,0,1,4.2,4.2,4.18,4.18,0,0,1-8.35,0A4.18,4.18,0,0,1,670.38,1323.72Z"/><path class="cls-7" d="M686,1358.73h-6.45v-35H686Z"/><path class="cls-7" d="M714,1349.18H697a5.44,5.44,0,0,0,9.85,2.25l6.75.7c-2.05,4.9-6.35,7.2-11.45,7.2a11.68,11.68,0,0,1-12-12c0-7,5-12,11.9-12,6.3,0,12,4.1,12,13.7Zm-17.2-4.35h10.25a5,5,0,0,0-5.05-4.21A5.12,5.12,0,0,0,696.83,1344.83Z"/><path class="cls-7" d="M724.38,1367.48h-6.5v-31.65h6.5v1.09c0,1.11-.1,1.61-.1,1.86,1.1-2,3.8-3.55,7.25-3.55,6.3,0,11.1,5,11.1,12s-4.85,12-11.15,12a8.24,8.24,0,0,1-7.1-3.5Zm-.15-20.2c0,3.5,2.4,6.3,5.85,6.3s5.85-2.8,5.85-6.3-2.4-6.25-5.85-6.25S724.23,1343.73,724.23,1347.28Z"/><path class="cls-7" d="M760.88,1342.23h-2.75c-3.3,0-4.8,1.55-4.8,5.55v11h-6.5v-22.9h6.3v3.65a6,6,0,0,1,6-4,7.36,7.36,0,0,1,1.8.2Z"/><path class="cls-7" d="M772.38,1358.73h-6.5v-17.4h-3.21v-5.5h9.71Zm-3.55-35a4.2,4.2,0,0,1,4.2,4.2,4.18,4.18,0,0,1-8.36,0A4.19,4.19,0,0,1,768.83,1323.72Z"/><path class="cls-7" d="M787.73,1351.73l5.2-15.9h6.85l-8.15,22.9h-8l-7.81-22.9h7.06Z"/><path class="cls-7" d="M815.23,1343.48c0-1.65-1.3-2.7-3.8-2.7a15.48,15.48,0,0,0-6.9,2.15L802,1338a19.61,19.61,0,0,1,9.81-2.8c5.2,0,10,2.39,10,8.45v15h-6.5v-2.15c-1.2,1.8-3.8,2.75-6.4,2.75-4.86,0-8-3.45-8-7.2,0-4.35,3.2-7.05,8.3-7.05h4.5c1.11,0,1.61-.5,1.61-1.35Zm0,7v-1.65a2.84,2.84,0,0,1-2,.5h-2.45c-2,0-3.25.9-3.25,2.5s1.25,2.7,3.25,2.7C813.12,1354.58,815.23,1353.38,815.23,1350.53Z"/><path class="cls-7" d="M835.28,1327.12v8.71h5v5.5h-5v10.35c0,1.45,1.14,1.65,2.14,1.65,1.66,0,3-.15,3-.15v5.55s-3.15.3-5,.3c-3.26,0-6.61-.55-6.61-5.15v-12.55h-3.6v-5.5h3.6v-8.71Z"/><path class="cls-7" d="M867.18,1349.18H850.12a5.44,5.44,0,0,0,9.85,2.25l6.76.7c-2.06,4.9-6.35,7.2-11.46,7.2a11.68,11.68,0,0,1-12-12c0-7,5.05-12,11.9-12,6.3,0,12,4.1,12,13.7ZM850,1344.83h10.25a5,5,0,0,0-5.05-4.21A5.12,5.12,0,0,0,850,1344.83Z"/><polygon class="cls-2" points="1369 689 351 689 471 579 1262 579 1369 689"/><rect class="cls-1" x="1784" y="1197" width="1018" height="683"/><polygon class="cls-2" points="2802 1880 1784 1880 1904 1770 2695 1770 2802 1880"/><rect class="cls-3" x="1905.5" y="1199" width="790" height="570.5"/><rect class="cls-8" x="1972" y="1449" width="174" height="321"/><rect class="cls-5" x="1997" y="1476" width="124" height="124"/><line class="cls-6" x1="2017" y1="1576" x2="2094.5" y2="1498.5"/><line class="cls-6" x1="2064" y1="1576" x2="2098.5" y2="1541.5"/><line class="cls-6" x1="2020" y1="1530" x2="2049.5" y2="1500.5"/><rect class="cls-6" x="1998" y="1650" width="122" height="92"/><circle class="cls-6" cx="2107.5" cy="1625.5" r="12.5"/><rect class="cls-8" x="2215" y="1449" width="174" height="321"/><rect class="cls-5" x="2240" y="1476" width="124" height="124"/><line class="cls-6" x1="2260" y1="1576" x2="2337.5" y2="1498.5"/><line class="cls-6" x1="2307" y1="1576" x2="2341.5" y2="1541.5"/><line class="cls-6" x1="2263" y1="1530" x2="2292.5" y2="1500.5"/><rect class="cls-6" x="2241" y="1650" width="122" height="92"/><circle class="cls-6" cx="2350.5" cy="1625.5" r="12.5"/><rect class="cls-8" x="2456" y="1449" width="174" height="321"/><rect class="cls-5" x="2481" y="1476" width="124" height="124"/><line class="cls-6" x1="2501" y1="1576" x2="2578.5" y2="1498.5"/><line class="cls-6" x1="2548" y1="1576" x2="2582.5" y2="1541.5"/><line class="cls-6" x1="2504" y1="1530" x2="2533.5" y2="1500.5"/><rect class="cls-6" x="2482" y="1650" width="122" height="92"/><circle class="cls-6" cx="2591.5" cy="1625.5" r="12.5"/><rect class="cls-1" x="1784" y="688" width="1018" height="573"/><polygon class="cls-2" points="2802 1261 1784 1261 1904 1151 2695 1151 2802 1261"/><rect class="cls-3" x="1905.5" y="578" width="790" height="572.5"/><rect class="cls-8" x="1972" y="830" width="174" height="321"/><rect class="cls-5" x="1997" y="857" width="124" height="124"/><line class="cls-6" x1="2017" y1="957" x2="2094.5" y2="879.5"/><line class="cls-6" x1="2064" y1="957" x2="2098.5" y2="922.5"/><line class="cls-6" x1="2020" y1="911" x2="2049.5" y2="881.5"/><rect class="cls-6" x="1998" y="1031" width="122" height="92"/><circle class="cls-6" cx="2107.5" cy="1006.5" r="12.5"/><rect class="cls-8" x="2215" y="830" width="174" height="321"/><rect class="cls-5" x="2240" y="857" width="124" height="124"/><line class="cls-6" x1="2260" y1="957" x2="2337.5" y2="879.5"/><line class="cls-6" x1="2307" y1="957" x2="2341.5" y2="922.5"/><line class="cls-6" x1="2263" y1="911" x2="2292.5" y2="881.5"/><rect class="cls-6" x="2241" y="1031" width="122" height="92"/><circle class="cls-6" cx="2350.5" cy="1006.5" r="12.5"/><rect class="cls-8" x="2456" y="830" width="174" height="321"/><rect class="cls-5" x="2481" y="857" width="124" height="124"/><line class="cls-6" x1="2501" y1="957" x2="2578.5" y2="879.5"/><line class="cls-6" x1="2548" y1="957" x2="2582.5" y2="922.5"/><line class="cls-6" x1="2504" y1="911" x2="2533.5" y2="881.5"/><rect class="cls-6" x="2482" y="1031" width="122" height="92"/><circle class="cls-6" cx="2591.5" cy="1006.5" r="12.5"/><polygon class="cls-2" points="2802 689 1784 689 1904 579 2695 579 2802 689"/><rect class="cls-1" x="3231" y="1197" width="1018" height="683"/><polygon class="cls-2" points="4249 1880 3231 1880 3351 1770 4142 1770 4249 1880"/><rect class="cls-3" x="3352.5" y="1199" width="790" height="570.5"/><rect class="cls-9" x="3419" y="1449" width="174" height="321"/><rect class="cls-5" x="3444" y="1476" width="124" height="124"/><line class="cls-6" x1="3464" y1="1576" x2="3541.5" y2="1498.5"/><line class="cls-6" x1="3511" y1="1576" x2="3545.5" y2="1541.5"/><line class="cls-6" x1="3467" y1="1530" x2="3496.5" y2="1500.5"/><rect class="cls-6" x="3445" y="1650" width="122" height="92"/><circle class="cls-6" cx="3554.5" cy="1625.5" r="12.5"/><rect class="cls-9" x="3662" y="1449" width="174" height="321"/><rect class="cls-5" x="3687" y="1476" width="124" height="124"/><line class="cls-6" x1="3707" y1="1576" x2="3784.5" y2="1498.5"/><line class="cls-6" x1="3754" y1="1576" x2="3788.5" y2="1541.5"/><line class="cls-6" x1="3710" y1="1530" x2="3739.5" y2="1500.5"/><rect class="cls-9" x="3688" y="1650" width="122" height="92"/><circle class="cls-6" cx="3797.5" cy="1625.5" r="12.5"/><rect class="cls-9" x="3903" y="1449" width="174" height="321"/><rect class="cls-5" x="3928" y="1476" width="124" height="124"/><line class="cls-6" x1="3948" y1="1576" x2="4025.5" y2="1498.5"/><line class="cls-6" x1="3995" y1="1576" x2="4029.5" y2="1541.5"/><line class="cls-6" x1="3951" y1="1530" x2="3980.5" y2="1500.5"/><rect class="cls-6" x="3929" y="1650" width="122" height="92"/><circle class="cls-6" cx="4038.5" cy="1625.5" r="12.5"/><rect class="cls-1" x="3231" y="688" width="1018" height="573"/><polygon class="cls-2" points="4249 1261 3231 1261 3351 1151 4142 1151 4249 1261"/><rect class="cls-3" x="3352.5" y="578" width="790" height="572.5"/><rect class="cls-9" x="3419" y="830" width="174" height="321"/><rect class="cls-5" x="3444" y="857" width="124" height="124"/><line class="cls-6" x1="3464" y1="957" x2="3541.5" y2="879.5"/><line class="cls-6" x1="3511" y1="957" x2="3545.5" y2="922.5"/><line class="cls-6" x1="3467" y1="911" x2="3496.5" y2="881.5"/><rect class="cls-6" x="3445" y="1031" width="122" height="92"/><circle class="cls-6" cx="3554.5" cy="1006.5" r="12.5"/><rect class="cls-9" x="3662" y="830" width="174" height="321"/><rect class="cls-5" x="3687" y="857" width="124" height="124"/><line class="cls-6" x1="3707" y1="957" x2="3784.5" y2="879.5"/><line class="cls-6" x1="3754" y1="957" x2="3788.5" y2="922.5"/><line class="cls-6" x1="3710" y1="911" x2="3739.5" y2="881.5"/><rect class="cls-6" x="3688" y="1031" width="122" height="92"/><circle class="cls-6" cx="3797.5" cy="1006.5" r="12.5"/><rect class="cls-9" x="3903" y="830" width="174" height="321"/><rect class="cls-5" x="3928" y="857" width="124" height="124"/><line class="cls-6" x1="3948" y1="957" x2="4025.5" y2="879.5"/><line class="cls-6" x1="3995" y1="957" x2="4029.5" y2="922.5"/><line class="cls-6" x1="3951" y1="911" x2="3980.5" y2="881.5"/><rect class="cls-9" x="3929" y="1031" width="122" height="92"/><circle class="cls-6" cx="4038.5" cy="1006.5" r="12.5"/><path class="cls-7" d="M3101.3,692.73h30v65h15.12v13.44h-46V757.69h15.12V706.17H3101.3Z"/><path class="cls-7" d="M3096.48,1330.69s13.22-11.65,23.18-21.06,12-15,12-21.39c0-5.38-3.7-10.08-10.42-10.08-5.93,0-10.41,3.58-10.41,9.29a20.17,20.17,0,0,0,2,8.18l-14.33,2.58a24.74,24.74,0,0,1-2.92-12.1c0-11,9.19-21.73,25.88-21.73,17.13,0,26.2,11.2,26.2,23.07,0,9.3-3,18.26-22.17,35.06l-9.3,8.18h32.48v13.44h-52.19Z"/><path class="cls-7" d="M1661.3,692.73h30v65h15.12v13.44h-46V757.69h15.12V706.17H1661.3Z"/><path class="cls-7" d="M1656.48,1330.69s13.22-11.65,23.18-21.06,12-15,12-21.39c0-5.38-3.7-10.08-10.42-10.08-5.93,0-10.41,3.58-10.41,9.29a20.17,20.17,0,0,0,2,8.18l-14.33,2.58a24.74,24.74,0,0,1-2.92-12.1c0-11,9.19-21.73,25.88-21.73,17.13,0,26.2,11.2,26.2,23.07,0,9.3-3,18.26-22.17,35.06l-9.3,8.18h32.48v13.44h-52.19Z"/><path class="cls-7" d="M224.3,692.73h30v65h15.12v13.44h-46V757.69h15.12V706.17H224.3Z"/><path class="cls-7" d="M219.48,1330.69s13.22-11.65,23.18-21.06,12-15,12-21.39c0-5.38-3.7-10.08-10.42-10.08-5.93,0-10.41,3.58-10.41,9.29a20.17,20.17,0,0,0,2,8.18l-14.33,2.58a24.74,24.74,0,0,1-2.92-12.1c0-11,9.19-21.73,25.88-21.73,17.13,0,26.2,11.2,26.2,23.07,0,9.3-3,18.26-22.17,35.06l-9.3,8.18h32.48v13.44H219.48Z"/><polygon class="cls-2" points="4249 689 3231 689 3351 579 4142 579 4249 689"/><rect class="cls-1" x="3218" y="2144" width="1018" height="573"/><polygon class="cls-9" points="4236 2717 3218 2717 3338 2575 4129 2575 4236 2717"/><rect class="cls-3" x="3339.5" y="2090" width="790" height="485"/><polygon class="cls-2" points="4236 2145 3218 2145 3338 2068 4129 2068 4236 2145"/><line class="cls-10" x1="2052" y1="1422" x2="2052" y2="1169"/><path class="cls-7" d="M2078.3,1301.72h6.95v35h-6.95Z"/><path class="cls-7" d="M2105,1313.23c5,0,8.5,3.15,8.5,8.5v15H2107v-13.35c0-2.9-1.85-4.1-3.9-4.1a6.34,6.34,0,0,0-4.85,2.6v14.85h-6.5v-22.9h6.35v.9c0,.8-.1,1.8-.1,1.8A9,9,0,0,1,2105,1313.23Z"/><path class="cls-7" d="M2127,1305.12v8.71H2132v5.5H2127v10.35c0,1.45,1.15,1.65,2.15,1.65,1.65,0,3-.15,3-.15v5.55s-3.15.3-5.05.3c-3.25,0-6.6-.55-6.6-5.15v-12.55h-3.6v-5.5h3.6v-8.71Z"/><path class="cls-7" d="M2158.9,1327.18h-17.05a5.44,5.44,0,0,0,9.85,2.25l6.75.7c-2,4.9-6.35,7.2-11.45,7.2a11.68,11.68,0,0,1-12-12c0-7,5.05-12,11.9-12,6.3,0,12,4.1,12,13.7Zm-17.2-4.35H2152a5,5,0,0,0-5-4.21A5.12,5.12,0,0,0,2141.7,1322.83Z"/><path class="cls-7" d="M2176.8,1320.23h-2.75c-3.3,0-4.8,1.55-4.8,5.55v11h-6.5v-22.9h6.3v3.65a6,6,0,0,1,5.95-4,7.36,7.36,0,0,1,1.8.2Z"/><path class="cls-7" d="M2193.7,1313.23c5,0,8.5,3.15,8.5,8.5v15h-6.5v-13.35c0-2.9-1.85-4.1-3.9-4.1a6.34,6.34,0,0,0-4.85,2.6v14.85h-6.5v-22.9h6.35v.9c0,.8-.1,1.8-.1,1.8A9,9,0,0,1,2193.7,1313.23Z"/><path class="cls-7" d="M2220.25,1321.48c0-1.65-1.3-2.7-3.8-2.7a15.56,15.56,0,0,0-6.9,2.15L2207,1316a19.6,19.6,0,0,1,9.8-2.8c5.2,0,9.95,2.39,9.95,8.45v15h-6.5v-2.15c-1.2,1.8-3.8,2.75-6.4,2.75-4.85,0-8-3.45-8-7.2,0-4.35,3.2-7.05,8.3-7.05h4.5c1.1,0,1.6-.5,1.6-1.35Zm0,7v-1.65a2.83,2.83,0,0,1-2,.5h-2.45c-2.05,0-3.25.9-3.25,2.5s1.25,2.7,3.25,2.7C2218.15,1332.58,2220.25,1331.38,2220.25,1328.53Z"/><path class="cls-7" d="M2238.55,1336.73h-6.45v-35h6.45Z"/><path class="cls-7" d="M3665.1,2223.73h-6.9v-35h11.85c8.25,0,12.6,5.16,12.6,11.51s-4.35,11.65-12.6,11.65h-5Zm0-29v11.21h3.9c3.8,0,6.55-1.81,6.55-5.7s-2.75-5.51-6.55-5.51Z"/><path class="cls-7" d="M3700.1,2207.23h-2.75c-3.3,0-4.8,1.55-4.8,5.55v10.95h-6.5v-22.9h6.3v3.65a6,6,0,0,1,6-3.95,7.36,7.36,0,0,1,1.8.2Z"/><path class="cls-7" d="M3711.6,2223.73h-6.5v-17.4h-3.2v-5.5h9.7Zm-3.55-35a4.19,4.19,0,0,1,4.2,4.2,4.18,4.18,0,0,1-8.35,0A4.18,4.18,0,0,1,3708.05,2188.72Z"/><path class="cls-7" d="M3727,2216.73l5.2-15.9H3739l-8.15,22.9h-8l-7.8-22.9h7.05Z"/><path class="cls-7" d="M3754.45,2208.48c0-1.65-1.3-2.7-3.8-2.7a15.56,15.56,0,0,0-6.9,2.15l-2.55-4.9a19.6,19.6,0,0,1,9.8-2.8c5.2,0,9.95,2.39,9.95,8.45v15.05h-6.5v-2.15c-1.2,1.8-3.8,2.75-6.4,2.75-4.85,0-8-3.45-8-7.2,0-4.35,3.2-7.05,8.3-7.05h4.5c1.1,0,1.6-.5,1.6-1.35Zm0,7.05v-1.65a2.83,2.83,0,0,1-2,.5H3750c-2.05,0-3.25.9-3.25,2.5s1.25,2.7,3.25,2.7C3752.35,2219.58,3754.45,2218.38,3754.45,2215.53Z"/><path class="cls-7" d="M3774.5,2192.12v8.71h4.95v5.5h-4.95v10.35c0,1.45,1.15,1.65,2.15,1.65,1.65,0,3-.15,3-.15v5.55s-3.15.3-5.05.3c-3.25,0-6.6-.55-6.6-5.15v-12.55h-3.6v-5.5h3.6v-8.71Z"/><path class="cls-7" d="M3806.4,2214.18h-17.05a5.44,5.44,0,0,0,9.85,2.25l6.75.7c-2,4.9-6.35,7.2-11.45,7.2a11.68,11.68,0,0,1-12-12c0-7,5.05-12.05,11.9-12.05,6.3,0,12,4.1,12,13.7Zm-17.2-4.35h10.25a5,5,0,0,0-5-4.21A5.12,5.12,0,0,0,3789.2,2209.83Z"/><path class="cls-7" d="M2975.7,905.73h-6.9v-35h11.85c8.25,0,12.6,5.16,12.6,11.51s-4.35,11.65-12.6,11.65h-5Zm0-29v11.21h3.9c3.8,0,6.55-1.81,6.55-5.7s-2.75-5.51-6.55-5.51Z"/><path class="cls-7" d="M2996.4,897.33v-14.5h6.5v13.3a4.06,4.06,0,0,0,4.4,4.4c2.35,0,4.4-1.25,4.4-4.4v-13.3h6.45v14.5c0,4.8-3.8,9-10.85,9S2996.4,902.13,2996.4,897.33Z"/><path class="cls-7" d="M3029.9,905.73h-6.5v-35h6.5V882c0,1.5-.1,3.09-.1,3.75,1.1-1.95,3.8-3.55,7.25-3.55,6.3,0,11.1,5,11.1,12s-4.85,12.05-11.15,12.05a8.24,8.24,0,0,1-7.1-3.5Zm-.15-11.45c0,3.5,2.4,6.3,5.85,6.3s5.85-2.8,5.85-6.3-2.4-6.25-5.85-6.25S3029.75,890.73,3029.75,894.28Z"/><path class="cls-7" d="M3058.8,905.73h-6.45v-35h6.45Z"/><path class="cls-7" d="M3072.25,905.73h-6.5v-17.4h-3.2v-5.5h9.7Zm-3.55-35a4.19,4.19,0,0,1,4.2,4.2,4.18,4.18,0,0,1-8.35,0A4.18,4.18,0,0,1,3068.7,870.72Z"/><path class="cls-7" d="M3082.9,894.28c0,3.6,2.35,6.25,5.75,6.25a5.25,5.25,0,0,0,5-3.5l6.1,1.9c-1.5,4.55-6,7.4-11.2,7.4a12.05,12.05,0,1,1,0-24.1c5.2,0,9.7,2.89,11.2,7.45l-6.1,1.85a5.31,5.31,0,0,0-5-3.5C3085.25,888,3082.9,890.68,3082.9,894.28Z"/><rect class="cls-4" x="513.54" y="131.66" width="725.47" height="291.16" transform="translate(-37 174.05) rotate(-11.11)"/><path class="cls-7" d="M654.92,342.57c9.67-1.9,16-8.55,17-17.71l15.92-3.13c-.89,18-13.91,30.93-30.35,34.15-21.42,4.21-41-8.25-45.36-30.19s9.15-40.9,30.57-45.11c16.44-3.23,33.38,3.81,41,20.14l-15.91,3.12c-4.4-8.1-12.81-11.85-22.48-9.95-13.73,2.7-20.84,14.9-18.1,28.83S641.19,345.27,654.92,342.57Z"/><path class="cls-7" d="M693.59,322.77c-2.86-14.56,6.41-27.3,20.56-30.07s27.55,5.5,30.41,20.06-6.42,27.29-20.56,30.07S696.45,337.33,693.59,322.77Zm13.52-2.66c1.45,7.39,7.44,12,14.52,10.66s10.75-7.95,9.3-15.33-7.44-12.05-14.41-10.68S705.64,312.62,707.11,320.11Z"/><path class="cls-7" d="M815,294.61c-1.14-5.83-5.38-7.59-9.54-6.77-3.85.75-6.85,3.61-8.82,7.35l6.07,30.89-13.52,2.66-5.5-28c-1.12-5.72-5.27-7.61-9.54-6.77-3.85.75-6.85,3.61-8.82,7.35l6.07,30.89-13.52,2.65-9.36-47.63,13.21-2.6.37,1.87c.33,1.67.53,3.79.53,3.79a18.8,18.8,0,0,1,12.9-9.66c7.07-1.39,13.18.54,17,5.63,2.87-6.29,7.67-10.48,14.33-11.78,10.29-2,18.86,3.1,21,14.23l6.13,31.2-13.53,2.66Z"/><path class="cls-7" d="M862.23,333.29,848.71,336l-12.93-65.84,13.52-2.66.45,2.29c.45,2.29.44,3.37.55,3.89,1.49-4.51,6.45-8.94,13.63-10.35,13.11-2.57,25.15,6,28,20.54s-5.16,27.05-18.27,29.62c-6.76,1.33-13-.79-16.2-4.38Zm-8.56-42c1.42,7.29,7.56,12.13,14.74,10.72s11-8.22,9.59-15.5-7.54-12-14.72-10.61S852.21,284,853.67,291.33Z"/><path class="cls-7" d="M925.55,269c-.68-3.43-3.81-5.09-9-4.07-4.79.94-10.35,4.52-13.48,7.29l-7.31-9.15A41.59,41.59,0,0,1,915,253.25c10.82-2.12,21.68.93,24.15,13.52l6.15,31.31-13.52,2.65-.88-4.47c-1.76,4.24-6.78,7.27-12.19,8.34-10.09,2-18.06-3.91-19.59-11.71-1.77-9.05,3.78-16,14.39-18.06l9.36-1.84c2.29-.45,3.13-1.69,2.78-3.46Zm2.88,14.66-.68-3.43c-.67,1-2.08,1.49-4,1.86l-5.09,1c-4.27.84-6.4,3.2-5.74,6.53s3.7,5.1,7.86,4.29C925.71,293,929.59,289.6,928.43,283.67Z"/><path class="cls-7" d="M974.39,241.59c10.3-2,19,3.08,21.16,14.21l6.12,31.21-13.52,2.65-5.45-27.77c-1.19-6-5.53-7.77-9.79-6.94-3.95.78-7.06,3.66-9,7.39l6.07,30.9-13.52,2.65-9.36-47.64,13.21-2.59.37,1.87c.32,1.67.52,3.79.52,3.79A19.13,19.13,0,0,1,974.39,241.59Z"/><path class="cls-7" d="M1027.16,282l-3.44.68L998,238.24l15.08-3,16.75,31.93,3.53-35.91,14.67-2.88-8.21,58.87c-1,7.43-4,11.91-12.77,13.63l-9.36,1.84-2.23-11.34,6.66-1.31c2.7-.53,4.16-1.89,4.57-4.78Z"/><path class="cls-7" d="M1140,259.84l-15.6,3.06-10.14-18.64-22,4.31-1.92,21-15.19,3,9.21-77.43,17.27-3.39Zm-44-50.78-.21.05-2.48,26.41,14.88-2.92Z"/><rect class="cls-11" x="496.57" y="181.97" width="40.06" height="474.56" rx="20.03" transform="translate(-71.11 107.4) rotate(-11.11)"/><rect class="cls-8" x="1980.54" y="137.66" width="725.47" height="291.16" transform="translate(-10.66 456.85) rotate(-11.11)"/><path class="cls-7" d="M2122.18,342.52c9.67-1.9,16-8.55,17.05-17.72l15.91-3.12c-.89,18-13.91,30.93-30.35,34.15-21.42,4.21-41.05-8.25-45.36-30.2s9.15-40.9,30.57-45.1c16.44-3.23,33.38,3.81,41,20.14l-15.91,3.12c-4.4-8.1-12.81-11.85-22.48-10-13.73,2.7-20.84,14.89-18.1,28.83S2108.45,345.21,2122.18,342.52Z"/><path class="cls-7" d="M2160.85,322.72c-2.86-14.57,6.42-27.3,20.56-30.07s27.55,5.5,30.41,20.06-6.42,27.29-20.56,30.07S2163.71,337.28,2160.85,322.72Zm13.52-2.66c1.45,7.39,7.44,12,14.52,10.65s10.75-7.94,9.3-15.33-7.44-12-14.41-10.67S2172.9,312.57,2174.37,320.06Z"/><path class="cls-7" d="M2282.25,294.56c-1.14-5.83-5.38-7.59-9.54-6.77-3.85.75-6.85,3.61-8.82,7.35L2270,326l-13.52,2.66-5.5-28c-1.12-5.73-5.27-7.61-9.54-6.77-3.85.75-6.85,3.61-8.82,7.35l6.07,30.89-13.52,2.65-9.36-47.64L2229,284.6l.37,1.87c.33,1.67.53,3.79.53,3.79a18.81,18.81,0,0,1,12.9-9.67c7.07-1.38,13.18.55,17,5.63,2.87-6.28,7.67-10.47,14.33-11.77,10.3-2,18.86,3.1,21,14.23l6.13,31.2-13.52,2.66Z"/><path class="cls-7" d="M2329.49,333.24,2316,335.9,2303,270.06l13.52-2.66.45,2.29c.45,2.29.45,3.37.55,3.89,1.49-4.51,6.45-8.94,13.63-10.35,13.11-2.57,25.15,6,28,20.54s-5.16,27-18.27,29.62c-6.76,1.33-13-.79-16.2-4.38Zm-8.56-42c1.43,7.28,7.56,12.13,14.74,10.72s11-8.22,9.6-15.5-7.55-12-14.73-10.61S2319.48,283.9,2320.93,291.28Z"/><path class="cls-7" d="M2392.81,269c-.68-3.44-3.81-5.09-9-4.07-4.79.94-10.35,4.52-13.48,7.29L2363,263a41.52,41.52,0,0,1,19.24-9.83c10.82-2.12,21.68.93,24.15,13.52l6.15,31.31L2399,300.68l-.88-4.47c-1.76,4.23-6.78,7.27-12.19,8.33-10.09,2-18-3.91-19.59-11.71-1.77-9,3.78-16,14.39-18.05l9.36-1.84c2.29-.45,3.13-1.7,2.78-3.46Zm2.88,14.66-.68-3.43c-.67,1-2.08,1.49-4,1.86l-5.1,1c-4.27.84-6.39,3.2-5.74,6.53s3.7,5.1,7.86,4.29C2393,292.91,2396.85,289.55,2395.69,283.62Z"/><path class="cls-7" d="M2441.65,241.54c10.3-2,19,3.08,21.16,14.21l6.12,31.21-13.52,2.65L2450,261.84c-1.19-6-5.53-7.78-9.79-6.94-4,.78-7.06,3.66-9,7.39l6.07,30.9-13.52,2.65-9.36-47.64,13.21-2.59.37,1.87c.33,1.66.53,3.78.53,3.78A19.1,19.1,0,0,1,2441.65,241.54Z"/><path class="cls-7" d="M2494.42,282l-3.44.68-25.68-44.44,15.08-3,16.75,31.93,3.53-35.91,14.67-2.88-8.21,58.86c-1,7.44-4,11.92-12.77,13.64l-9.36,1.84-2.23-11.34,6.66-1.31c2.7-.53,4.16-1.89,4.57-4.78Z"/><path class="cls-7" d="M2580.45,224.44l0,.2c9.1,1.78,15.4,6.92,17.06,15.34,2.29,11.65-4.53,22.61-19.92,25.63l-25.9,5.09-14.3-72.81,23.51-4.62c15-2.94,24.28,4.84,26.12,14.21A16.36,16.36,0,0,1,2580.45,224.44Zm-26.15-17.12,3.18,16.23,7.39-1.45c5.2-1,9-4.46,7.85-10.08s-6-7.13-11-6.15Zm9.49,48.37,7.49-1.47c8.74-1.72,12.11-6.59,10.94-12.52-1.2-6.14-6.91-8.26-14-6.87l-8.21,1.62Z"/><rect class="cls-11" x="1963.57" y="181.97" width="40.06" height="474.56" rx="20.03" transform="translate(-43.61 390.09) rotate(-11.11)"/><rect class="cls-9" x="3387.54" y="124.66" width="725.47" height="291.16" transform="translate(18.21 727.73) rotate(-11.11)"/><path class="cls-7" d="M3519.77,337.37c9.67-1.9,16-8.55,17-17.72l15.92-3.12c-.9,18-13.91,30.92-30.35,34.15-21.43,4.21-41.05-8.25-45.36-30.2s9.14-40.9,30.57-45.11c16.44-3.22,33.38,3.82,41,20.15l-15.91,3.12c-4.4-8.1-12.81-11.85-22.48-9.95-13.73,2.69-20.84,14.89-18.11,28.83S3506,340.06,3519.77,337.37Z"/><path class="cls-7" d="M3558.44,317.57c-2.86-14.57,6.41-27.3,20.56-30.08s27.55,5.5,30.41,20.07-6.42,27.29-20.57,30.07S3561.3,332.13,3558.44,317.57Zm13.52-2.66c1.45,7.39,7.44,12,14.51,10.65s10.76-7.94,9.31-15.33-7.44-12-14.41-10.67S3570.49,307.42,3572,314.91Z"/><path class="cls-7" d="M3679.84,289.41c-1.15-5.83-5.38-7.59-9.54-6.78-3.85.76-6.85,3.62-8.82,7.36l6.06,30.89L3654,323.53l-5.49-28c-1.12-5.72-5.28-7.6-9.54-6.77-3.85.76-6.85,3.62-8.82,7.35l6.07,30.9-13.53,2.65L3613.36,282l13.21-2.59.37,1.87c.32,1.66.52,3.79.52,3.79a18.83,18.83,0,0,1,12.91-9.67c7.07-1.39,13.17.55,17,5.63,2.87-6.29,7.67-10.47,14.33-11.78,10.29-2,18.86,3.1,21.05,14.24l6.12,31.2-13.52,2.66Z"/><path class="cls-7" d="M3727.08,328.09l-13.53,2.66-12.93-65.84,13.53-2.66.45,2.29c.45,2.29.44,3.37.54,3.89,1.5-4.51,6.46-8.94,13.64-10.35,13.1-2.57,25.15,6,28,20.53s-5.17,27.05-18.27,29.63c-6.76,1.32-13-.8-16.2-4.38Zm-8.57-42c1.43,7.28,7.57,12.13,14.75,10.72s11-8.22,9.59-15.5-7.54-12-14.72-10.61S3717.06,278.75,3718.51,286.13Z"/><path class="cls-7" d="M3790.39,263.8c-.67-3.43-3.8-5.08-9-4.06-4.78.94-10.34,4.52-13.47,7.29l-7.31-9.15a41.59,41.59,0,0,1,19.25-9.83c10.81-2.12,21.68.93,24.15,13.52l6.15,31.31-13.53,2.65-.87-4.47c-1.77,4.23-6.79,7.27-12.2,8.33-10.09,2-18.05-3.91-19.58-11.71-1.78-9.05,3.78-16,14.39-18.05l9.36-1.84c2.29-.45,3.12-1.7,2.78-3.46Zm2.88,14.67-.67-3.43c-.67,1-2.08,1.49-4,1.86l-5.09,1c-4.27.83-6.4,3.2-5.74,6.53s3.7,5.1,7.86,4.28C3790.56,287.75,3794.44,284.4,3793.27,278.47Z"/><path class="cls-7" d="M3839.24,236.39c10.3-2,19,3.08,21.15,14.21l6.13,31.2L3853,284.46l-5.46-27.77c-1.18-6-5.52-7.78-9.78-6.94-4,.78-7.06,3.66-9,7.39l6.07,30.9-13.53,2.65-9.35-47.64,13.21-2.59.37,1.87c.32,1.66.52,3.78.52,3.78A19.12,19.12,0,0,1,3839.24,236.39Z"/><path class="cls-7" d="M3892,276.8l-3.43.67L3862.88,233l15.09-3L3894.72,262l3.53-35.91,14.67-2.88-8.21,58.86c-1,7.44-4,11.92-12.77,13.64l-9.36,1.84-2.23-11.34,6.66-1.31a5.06,5.06,0,0,0,4.57-4.79Z"/><path class="cls-7" d="M3980.64,246.86c9.68-1.9,16-8.55,17.05-17.71l15.92-3.13c-.9,18-13.91,30.93-30.35,34.16-21.43,4.2-41.05-8.26-45.36-30.2s9.14-40.9,30.57-45.11c16.44-3.23,33.37,3.82,41,20.14l-15.91,3.12c-4.4-8.1-12.81-11.85-22.48-9.95-13.73,2.7-20.84,14.9-18.11,28.84S3966.92,249.56,3980.64,246.86Z"/><rect class="cls-11" x="3370.57" y="174.97" width="40.06" height="474.56" rx="20.03" transform="translate(-15.89 661.08) rotate(-11.11)"/><polyline class="cls-12" points="2069.18 1410.5 2051.5 1428.18 2033.82 1410.5"/><polyline class="cls-12" points="2033.82 1184.5 2051.5 1166.82 2069.18 1184.5"/><path class="cls-12" d="M836.34,1424a131.93,131.93,0,0,0-186.68,0"/><polyline class="cls-12" points="838 1401 838 1426 813 1426"/><polyline class="cls-12" points="672 1426 647 1426 647 1401"/><path class="cls-12" d="M3853.76,2304.77a177.51,177.51,0,0,0-251.18,0"/><polyline class="cls-12" points="3856 2273.82 3856 2307.46 3822.36 2307.46"/><polyline class="cls-12" points="3632.64 2307.46 3599 2307.46 3599 2273.82"/><polyline class="cls-12" points="2677.63 1025.57 2654.91 1015.15 2665.32 992.42"/><polyline class="cls-12" points="3386.16 989.07 3394.4 1012.67 3370.8 1020.92"/><path class="cls-12" d="M3394,1012c-196.87-99.29-487.84-114.75-737,3"/><path class="cls-12" d="M3617.3,1993.77c7-94.5-33.83-204.35-122-284.17"/><polyline class="cls-12" points="3634.98 1980.65 3616.77 1997.78 3599.64 1979.57"/><path class="cls-9" d="M3422,2343h163a37,37,0,0,1,37,37v105a0,0,0,0,1,0,0H3385a0,0,0,0,1,0,0V2380A37,37,0,0,1,3422,2343Z"/><path class="cls-9" d="M3897,2343h148.43a37,37,0,0,1,37,37v105a0,0,0,0,1,0,0H3860a0,0,0,0,1,0,0V2380A37,37,0,0,1,3897,2343Z"/><polygon class="cls-4" points="3320 2389 3251 2447 3251 2217 3320 2164 3320 2389"/><line class="cls-6" x1="3289" y1="2190" x2="3289" y2="2414"/><line class="cls-6" x1="3253" y1="2337" x2="3319" y2="2277"/><path class="cls-13" d="M3957.31,2353.13c-1.81,9.31-16.39,12.38-16.39,12.38,3-2.55,3-8.62,3-8.62-5.62,7.54-10.11,6.42-10.11,6.42,2.25-3.31,1.59-13,1.59-13-.9,3.16-6,7.37-6,7.37l.9-17.58-6.46,8.86c1.8-9.61-5.11-38.46-5.11-38.46l34.56,10.82Z"/><path class="cls-13" d="M3983.08,2353.13c1.8,9.31,15.42,12.28,15.42,12.28-3-2.56-.55-8.52-.55-8.52,1.76,5,9.3,5.94,9.3,5.94-2.25-3.31-2.24-12.56-2.24-12.56.9,3.16,6,7.37,6,7.37l-.9-17.58,6.46,8.86c-1.8-9.61,5.11-38.46,5.11-38.46l-34.56,10.82Z"/><path class="cls-13" d="M3933.55,2239.34l-2.86-8.94,7.86,6.79.72-10.72,7.14,9.65s20-18.93,59-1.07c0,0,24.51,11.41,23.31,30.64l-6.16,44.75-101.86-3.22S3893.75,2244.35,3933.55,2239.34Z"/><polygon class="cls-14" points="3990.21 2350.85 3993.61 2368.91 4003.81 2372.74 4003.81 2422.77 3918.08 2417.04 3940.23 2370.77 3947.32 2368.83 3948.99 2350.11 3990.21 2350.85"/><path class="cls-15" d="M4011.53,2289.43A11.12,11.12,0,0,1,4023,2288c4.59,2.11,5.22,7,3.13,12.61,0,0,5.34,15.7-7.19,15.93-12,.22-9.78-7.14-9.78-7.14"/><path class="cls-15" d="M3931.59,2288.71a11.32,11.32,0,0,0-11.74-1.48c-4.69,2.15-5.33,7.19-3.2,12.87,0,0-5.44,16,7.34,16.24,12.25.22,10-7.28,10-7.28"/><path class="cls-14" d="M3930.69,2262.83s2.6,12.23,0,17.15c-2.8,5.3-5.69,7.54-5.69,20,0,8.79,1.5,7.49,3.9,16.21,5.54,20.1-.52,25,18.76,41.09,3.24,2.7,6.25,7.62,11.14,7.86,5.85.29,14.57.36,19.39.36,8.34,0,9.27-4.82,14.87-8.73,17.13-11.94,13.2-21.82,20.43-38.7,2.86-6.67,4-9.92,3.69-19.21-.46-12-5-12.17-6.9-21.25-1.1-5.12-2.15-16.89-2.15-16.89s-9.11,14.21-25.45,16.62c-3.9.57-12.17,1.22-12.17,1.22l14.31-11.67s-18.1,8.8-27.21,10.41c-9.73,1.71-20.29-.3-20.29-.3S3938.46,2264.44,3930.69,2262.83Z"/><path class="cls-16" d="M4002.79,2296.63a12.69,12.69,0,1,0-25.37,0"/><circle cx="3990.02" cy="2295.31" r="4.31"/><circle cx="3951.02" cy="2295.31" r="4.31"/><path class="cls-16" d="M3963.43,2296.63a12.69,12.69,0,1,0-25.37,0"/><path class="cls-16" d="M3969.43,2301.68s-5.5,13.18-6.75,17.76c-.59,2.17-.89,6.69,1.33,9.35a8.2,8.2,0,0,0,11.49.58"/><path class="cls-16" d="M3953.4,2339.22a23.92,23.92,0,0,0,33.84.63"/><path class="cls-14" d="M4065,2478.27h-48.4l-.52-107.65a133.37,133.37,0,0,1,17.65.93c5.14.68,11.34,3.67,13.62,6.13,5.62,6.08,6,12.1,7.37,21.86,1.55,11.1,2.73,21.06,2.73,21.06Z"/><path class="cls-14" d="M3872.64,2478.92H3921l.53-108.3a133.31,133.31,0,0,0-17.65.93c-5.15.69-11.35,3.7-13.62,6.17-5.62,6.12-6,12.17-7.37,22-1.55,11.17-2.73,21.19-2.73,21.19Z"/><path class="cls-17" d="M4029.53,2434.89l33.32-6.14s-3.66-13.61-6.69-28.44c-2.16-10.52-4.31-21-12.19-26.06-8.27-5.26-46-3.66-46-3.66l.15,20.91h-57.2l-.88-20.87-18.44-.66s-20.66-2.12-28.68,4.76c-8.36,7.17-13.14,28.92-13.14,28.92l-5.36,25.62,32.91,5.28-3.78,44.5,129.44-.64Z"/><line class="cls-18" x1="4027.71" y1="2417.04" x2="4029.53" y2="2435.05"/><line class="cls-18" x1="3908.84" y1="2416.08" x2="3907.24" y2="2434.73"/><polygon class="cls-19" points="4154 2685 4130 2685 4123 2642 4123 2551 4159 2551 4159 2640.51 4154 2685"/><polygon class="cls-19" points="3807 2685 3783 2685 3775 2642 3776 2551 3812 2551 3812 2640.51 3807 2685"/><rect class="cls-19" x="3775" y="2523" width="384" height="119"/><rect class="cls-11" x="3759" y="2508" width="415" height="43"/><polygon class="cls-11" points="4174 2508 3759 2508 3778 2465 4149 2465 4174 2508"/><rect class="cls-20" x="3474.65" y="2341.4" width="54.96" height="75.97"/><path class="cls-21" d="M3450.91,2279.9s-6.51-6.31-1.2-11.8c0,0-8.2-11.52-1-18.66,0,0-.24-12.62,11.82-10.42,0,0,2.41-13.45,13.5-9.61,0,0,8.8-9.74,17.36,0,0,0,9.88-12.89,21.46.28,0,0,8.56-10,17.36,0,0,0,13.5-6.86,15.43,7.95,0,0,15.19,1.55,8.44,16,0,0,10.6,6.27,1.2,14.16,0,0,6.75,6.59.48,12.9l-7.95,13.44-93.07-3.29Z"/><path class="cls-22" d="M3544.85,2284.24a12,12,0,0,1,12.45-1.57c5,2.29,5.65,7.63,3.39,13.66,0,0,5.78,17-7.78,17.23-13,.24-10.58-7.72-10.58-7.72"/><path class="cls-22" d="M3461.23,2284.24a12,12,0,0,0-12.46-1.57c-5,2.29-5.65,7.63-3.39,13.66,0,0-5.77,17,7.79,17.23,13,.24,10.57-7.72,10.57-7.72"/><path class="cls-23" d="M3546.15,2286.85c-1.81-2.42-4.34-3.28-3.21-11.43.77-5.57,4.14-7,4.14-7s-6.82,1.55-11-1.82c-3.37-2.73-1.44-8-1.44-8s-12.7.64-9.18-10.84c0,0-5.77,7.79-21.36,7.79-16.08,0-23.3-7.79-23.3-7.79,1.92,10.2-11.58,8.59-11.58,8.59s3.94,5.06-.48,9.48a9.78,9.78,0,0,1-9.54,2.63s5.25,4.18,5.25,9.43c0,4.5-3.37,7-5,9-3.77,4.53-4.25,10.06-4.3,14.75-.15,12.72,7.9,22.82,7.9,22.82l2.7,22.95s-.62,10.32,16,13.75c1.46,2.61,5.43,6,16.18,6h11.25c11,0,14.91-3.53,16.28-6.17,15.73-3.6,15.12-13.56,15.12-13.56l2.7-22.95s7.29-9.14,7.87-21A25.1,25.1,0,0,0,3546.15,2286.85Z"/><path class="cls-24" d="M3543.25,2324.44l-2.7,22.95s.61,10-15.12,13.56c-1.37,2.64-5.27,6.17-16.28,6.17H3497.9c-10.75,0-14.72-3.37-16.18-6-16.6-3.43-16-13.75-16-13.75l-2.7-22.95s7.86,8.51,16.32,8.27c8.68-.24,12.69-4.29,22.14-4.21,9.87.09,15.78,3.9,21.1,4.32C3528.32,2333.27,3537.7,2332.54,3543.25,2324.44Z"/><path class="cls-23" d="M3484.59,2353.07c4.32,2.48,10.37-.8,18.64-.8,8,0,14.38,3.72,18.49,1.53,1.87-1,2-4,2-8.2,0-1.93-.9-6.18-2.33-7.47-3.51-3.18-8.92-2.25-18.41-2.25-9.8,0-13.18-.81-17.76,1.52-1.75.89-3.37,3.7-3.37,8.44C3481.86,2350.18,3482.81,2352.06,3484.59,2353.07Z"/><path class="cls-16" d="M3537.06,2293.57a13.13,13.13,0,1,0-26.25,0"/><circle cx="3523.55" cy="2292.2" r="4.2"/><circle cx="3483.55" cy="2292.2" r="4.2"/><path class="cls-16" d="M3496.34,2293.57a13.13,13.13,0,1,0-26.25,0"/><path class="cls-16" d="M3496.84,2294.67s-10.84,20.17-8.17,25.93c1.72,3.73,7.72.78,7.72.78s4.5,3.65,9,0c0,0,4.3,2.76,7.35,0"/><path class="cls-16" d="M3489.5,2343.5c10,5,19,4,27-1"/><path class="cls-16" d="M3500.47,2363.36a4.61,4.61,0,0,1,4.61-4.61"/><path class="cls-16" d="M3471.65,2275.82a34.59,34.59,0,0,1,11.41-1.61,44,44,0,0,1,11.41,1.61"/><path class="cls-16" d="M3512,2275.82a34.63,34.63,0,0,1,11.42-1.61,44.12,44.12,0,0,1,11.41,1.61"/><path class="cls-25" d="M3470.38,2370.4h-7.28c-35.35,0-48.49,9.2-53.23,22-6,16.28-11.11,32.43-11.11,32.43l-14.32,51,237.56-1.23-15.38-52.46s-7.18-20.24-10.45-27.09c-5.44-11.43-11.2-24.64-46.54-24.64h-20.07l-26.95,20.33L3474,2370.4Z"/><line class="cls-16" x1="3559.93" y1="2425.42" x2="3570.17" y2="2473.68"/><line class="cls-16" x1="3444.51" y1="2427.16" x2="3434.27" y2="2475.43"/><path class="cls-16" d="M3502.45,2475.05v-84.16s14.19,4.41,16.39,15.13c0,0,18.76-18.6,20.81-35.47"/><path class="cls-16" d="M3464.94,2370.24s6.62,26.79,22.7,36.41c0,0,4.57-15.61,14.81-15.76"/><circle class="cls-25" cx="3511.59" cy="2417.68" r="4.49"/><circle class="cls-25" cx="3511.59" cy="2445.34" r="4.49"/><polygon class="cls-19" points="3685 2685 3661 2685 3654 2642 3654 2551 3690 2551 3690 2640.51 3685 2685"/><polygon class="cls-19" points="3338 2685 3314 2685 3306 2642 3307 2551 3343 2551 3343 2640.51 3338 2685"/><rect class="cls-19" x="3306" y="2523" width="384" height="119"/><rect class="cls-11" x="3290" y="2508" width="415" height="43"/><polygon class="cls-11" points="3705 2508 3290 2508 3326 2465 3683 2465 3705 2508"/><rect class="cls-2" x="3421" y="2408" width="162" height="88"/><polygon class="cls-2" points="3511.24 2435 3492.76 2435 3483.53 2451 3492.76 2467 3511.24 2467 3520.47 2451 3511.24 2435"/><rect class="cls-2" x="3888" y="2408" width="162" height="88"/><polygon class="cls-2" points="3975.24 2435 3956.76 2435 3947.53 2451 3956.76 2467 3975.24 2467 3984.47 2451 3975.24 2435"/><path class="cls-6" d="M4051,2484.61h115.26a20.73,20.73,0,0,1,20.74,20.73v76.18a23.48,23.48,0,0,1-23.48,23.48H4160"/><path class="cls-6" d="M3421,2484.61H3296.57a20.74,20.74,0,0,0-20.74,20.73v76.18a23.48,23.48,0,0,0,23.48,23.48h3.52"/></svg>